<svg width="34" height="57" viewBox="0 0 34 57" fill="none" xmlns="http://www.w3.org/2000/svg">
<path d="M0.864 21.816L0.864 19.224H3.456L3.216 17.784V17.256C3.216 14.568 3.328 13.016 3.552 12.6C3.776 12.184 4.016 11.8 4.272 11.448C4.528 11.096 4.848 10.856 5.232 10.728C5.616 10.568 6.096 10.408 6.672 10.248C7.632 10.024 9.168 9.912 11.28 9.912V12.168C8.784 12.168 7.28 12.424 6.768 12.936C6.288 13.416 6.048 14.856 6.048 17.256V17.784L5.808 19.224H10.128L10.128 21.816H5.76L6 23.256L6 51.864C5.968 53.24 5.84 54.04 5.616 54.264C5.392 54.488 4.576 54.6 3.168 54.6L3.216 23.256L3.456 21.816H0.864Z" fill="#DDB652"/>
<path d="M16.11 54.3C15.39 54.3 14.76 54.25 14.22 54.15C13.68 54.05 13.2 53.83 12.78 53.49C12.38 53.17 12.04 52.87 11.76 52.59C11.5 52.31 11.28 51.82 11.1 51.12C10.92 50.42 10.78 49.84 10.68 49.38C10.58 48.9 10.51 48.12 10.47 47.04C10.41 45.42 10.38 43.57 10.38 41.49C10.38 39.41 10.39 37.93 10.41 37.05C10.43 36.15 10.49 35.07 10.59 33.81C10.71 32.53 10.88 31.62 11.1 31.08C11.34 30.54 11.67 29.97 12.09 29.37C12.51 28.75 13.05 28.34 13.71 28.14C14.37 27.94 15.17 27.84 16.11 27.84C16.11 28.54 16.04 28.95 15.9 29.07C15.78 29.19 15.35 29.25 14.61 29.25C13.55 29.25 12.89 30.08 12.63 31.74C12.39 33.38 12.27 36.35 12.27 40.65C12.27 40.85 12.27 41.13 12.27 41.49C12.27 45.91 12.39 48.92 12.63 50.52C12.87 52.1 13.53 52.89 14.61 52.89C15.35 52.89 15.78 52.95 15.9 53.07C16.04 53.19 16.11 53.6 16.11 54.3ZM23.9714 50.22C23.7314 50.52 23.4114 50.75 23.0114 50.91C22.6114 51.05 22.1214 51.12 21.5414 51.12C20.9614 51.12 19.7714 50.97 17.9714 50.67V49.08C18.0514 49.08 18.5514 49.13 19.4714 49.23C20.4114 49.33 21.1114 49.38 21.5714 49.38C22.6914 49.38 23.2514 48.34 23.2514 46.26C23.2514 46.12 23.2514 45.98 23.2514 45.84C23.2314 45.2 22.6114 44.42 21.3914 43.5C20.1714 42.56 19.2714 41.74 18.6914 41.04C18.1114 40.34 17.8214 39.63 17.8214 38.91C17.8214 38.19 17.8314 37.69 17.8514 37.41C17.8714 37.13 17.9414 36.78 18.0614 36.36C18.1814 35.94 18.3614 35.64 18.6014 35.46C19.2214 34.96 20.1614 34.71 21.4214 34.71L24.2714 35.13C24.2714 36.01 23.9114 36.45 23.1914 36.45C23.0514 36.45 22.9114 36.44 22.7714 36.42L21.5414 36.24C20.5614 36.24 19.9614 36.46 19.7414 36.9C19.5614 37.28 19.4714 37.84 19.4714 38.58C19.4714 39.3 20.2514 40.28 21.8114 41.52C22.5314 42.06 23.0714 42.49 23.4314 42.81C23.8114 43.13 24.1714 43.55 24.5114 44.07C24.8714 44.59 25.0514 45.1 25.0514 45.6C25.0514 46.08 25.0414 46.5 25.0214 46.86C25.0014 47.2 24.9514 47.61 24.8714 48.09C24.8114 48.57 24.7014 48.97 24.5414 49.29C24.4014 49.61 24.2114 49.92 23.9714 50.22ZM26.7909 54.3C26.7909 53.6 26.8509 53.19 26.9709 53.07C27.1109 52.95 27.5509 52.89 28.2909 52.89C29.3509 52.89 30.0009 52.11 30.2409 50.55C30.5009 48.97 30.6309 45.86 30.6309 41.22C30.6309 36.56 30.5309 33.58 30.3309 32.28C29.9509 30.34 29.2709 29.33 28.2909 29.25C27.5509 29.25 27.1109 29.19 26.9709 29.07C26.8509 28.95 26.7909 28.54 26.7909 27.84C27.7309 27.84 28.5309 27.94 29.1909 28.14C29.8509 28.34 30.3909 28.75 30.8109 29.37C31.2309 29.97 31.5509 30.54 31.7709 31.08C32.0109 31.62 32.1809 32.52 32.2809 33.78C32.4409 35.52 32.5209 37.56 32.5209 39.9C32.5209 42.24 32.5109 43.75 32.4909 44.43C32.4909 45.09 32.4709 45.96 32.4309 47.04C32.3909 48.12 32.3209 48.9 32.2209 49.38C32.1209 49.84 31.9809 50.42 31.8009 51.12C31.6209 51.82 31.3909 52.31 31.1109 52.59C30.8509 52.87 30.5109 53.17 30.0909 53.49C29.6909 53.83 29.2209 54.05 28.6809 54.15C28.1409 54.25 27.5109 54.3 26.7909 54.3Z" fill="#DDB652"/>
</svg>
